<mxfile host="app.diagrams.net" agent="Mozilla/5.0 (Windows NT 10.0; Win64; x64) AppleWebKit/537.36 (KHTML, like Gecko) Chrome/131.0.0.0 Safari/537.36" version="25.0.1" pages="2">
  <diagram name="Page-1" id="42789a77-a242-8287-6e28-9cd8cfd52e62">
    <mxGraphModel grid="1" page="1" gridSize="10" guides="1" tooltips="1" connect="1" arrows="1" fold="1" pageScale="1" pageWidth="1100" pageHeight="850" background="none" math="0" shadow="0">
      <root>
        <mxCell id="0" />
        <mxCell id="1" parent="0" />
        <mxCell id="1vUbkSMEh-zg-u3bl6Ez-1" value="&lt;div&gt;Sistema recibe&amp;nbsp;&lt;/div&gt;&lt;div&gt;envios y&amp;nbsp;&lt;/div&gt;&lt;div&gt;genera Pedidos &lt;/div&gt;" style="ellipse;whiteSpace=wrap;html=1;rounded=0;shadow=1;comic=0;labelBackgroundColor=none;strokeWidth=1;fontFamily=Verdana;fontSize=12;align=center;" vertex="1" parent="1">
          <mxGeometry x="747" y="160" width="130" height="80" as="geometry" />
        </mxCell>
        <mxCell id="1vUbkSMEh-zg-u3bl6Ez-2" value="&lt;div&gt;&lt;br&gt;&lt;/div&gt;&lt;div&gt;&lt;b&gt;API&lt;/b&gt; &lt;/div&gt;&lt;div&gt;ENVIOS&lt;br&gt;&lt;/div&gt;&lt;div&gt;HECHOS&amp;nbsp;&lt;/div&gt;&lt;div&gt;(FIFO)&lt;/div&gt;&lt;div&gt;&lt;br&gt;&lt;/div&gt;" style="ellipse;whiteSpace=wrap;html=1;rounded=0;shadow=1;comic=0;labelBackgroundColor=none;strokeWidth=1;fontFamily=Verdana;fontSize=12;align=center;" vertex="1" parent="1">
          <mxGeometry x="567" y="80" width="100" height="80" as="geometry" />
        </mxCell>
        <mxCell id="1vUbkSMEh-zg-u3bl6Ez-3" value="Bodega" style="shape=umlActor;verticalLabelPosition=bottom;verticalAlign=top;html=1;outlineConnect=0;" vertex="1" parent="1">
          <mxGeometry x="347" y="244" width="30" height="60" as="geometry" />
        </mxCell>
        <mxCell id="1vUbkSMEh-zg-u3bl6Ez-4" value="(FIFO)&lt;br&gt;PEDIDOS QUEUE" style="ellipse;whiteSpace=wrap;html=1;rounded=0;shadow=1;comic=0;labelBackgroundColor=none;strokeWidth=1;fontFamily=Verdana;fontSize=12;align=center;" vertex="1" parent="1">
          <mxGeometry x="572" y="233" width="90" height="60" as="geometry" />
        </mxCell>
        <mxCell id="1vUbkSMEh-zg-u3bl6Ez-5" value="" style="endArrow=classic;html=1;rounded=0;entryX=1;entryY=0.3333333333333333;entryDx=0;entryDy=0;entryPerimeter=0;" edge="1" parent="1" source="1vUbkSMEh-zg-u3bl6Ez-4" target="1vUbkSMEh-zg-u3bl6Ez-3">
          <mxGeometry width="50" height="50" relative="1" as="geometry">
            <mxPoint x="527" y="400" as="sourcePoint" />
            <mxPoint x="627" y="460" as="targetPoint" />
          </mxGeometry>
        </mxCell>
        <mxCell id="1vUbkSMEh-zg-u3bl6Ez-6" value="" style="endArrow=classic;html=1;rounded=0;exitX=0;exitY=1;exitDx=0;exitDy=0;" edge="1" parent="1" source="1vUbkSMEh-zg-u3bl6Ez-1" target="1vUbkSMEh-zg-u3bl6Ez-4">
          <mxGeometry width="50" height="50" relative="1" as="geometry">
            <mxPoint x="530" y="486" as="sourcePoint" />
            <mxPoint x="787" y="400" as="targetPoint" />
          </mxGeometry>
        </mxCell>
        <mxCell id="1vUbkSMEh-zg-u3bl6Ez-7" value="&lt;div&gt;Pedido&amp;nbsp;&lt;/div&gt;&lt;div&gt;Hecho&lt;/div&gt;" style="ellipse;whiteSpace=wrap;html=1;rounded=0;shadow=1;comic=0;labelBackgroundColor=none;strokeWidth=1;fontFamily=Verdana;fontSize=12;align=center;" vertex="1" parent="1">
          <mxGeometry x="540" y="383" width="90" height="60" as="geometry" />
        </mxCell>
        <mxCell id="1vUbkSMEh-zg-u3bl6Ez-8" value="" style="endArrow=classic;html=1;rounded=0;exitX=1;exitY=1;exitDx=0;exitDy=0;exitPerimeter=0;" edge="1" parent="1" source="1vUbkSMEh-zg-u3bl6Ez-3" target="1vUbkSMEh-zg-u3bl6Ez-7">
          <mxGeometry width="50" height="50" relative="1" as="geometry">
            <mxPoint x="530" y="486" as="sourcePoint" />
            <mxPoint x="643" y="445" as="targetPoint" />
          </mxGeometry>
        </mxCell>
        <mxCell id="1vUbkSMEh-zg-u3bl6Ez-9" value="" style="edgeStyle=orthogonalEdgeStyle;rounded=0;orthogonalLoop=1;jettySize=auto;html=1;" edge="1" parent="1" source="1vUbkSMEh-zg-u3bl6Ez-10" target="1vUbkSMEh-zg-u3bl6Ez-23">
          <mxGeometry relative="1" as="geometry" />
        </mxCell>
        <mxCell id="1vUbkSMEh-zg-u3bl6Ez-10" value="&lt;div&gt;Reportes&lt;/div&gt;&lt;div&gt;&lt;br&gt;&lt;/div&gt;Pedido valido&lt;br&gt;o no valido." style="ellipse;whiteSpace=wrap;html=1;rounded=0;shadow=1;comic=0;labelBackgroundColor=none;strokeWidth=1;fontFamily=Verdana;fontSize=12;align=center;" vertex="1" parent="1">
          <mxGeometry x="347" y="510" width="110" height="90" as="geometry" />
        </mxCell>
        <mxCell id="1vUbkSMEh-zg-u3bl6Ez-11" style="edgeStyle=orthogonalEdgeStyle;rounded=0;orthogonalLoop=1;jettySize=auto;html=1;exitX=0;exitY=0.3333333333333333;exitDx=0;exitDy=0;exitPerimeter=0;entryX=0.5;entryY=0;entryDx=0;entryDy=0;" edge="1" parent="1" source="1vUbkSMEh-zg-u3bl6Ez-12" target="1vUbkSMEh-zg-u3bl6Ez-26">
          <mxGeometry relative="1" as="geometry" />
        </mxCell>
        <mxCell id="1vUbkSMEh-zg-u3bl6Ez-12" value="Calidad" style="shape=umlActor;verticalLabelPosition=bottom;verticalAlign=top;html=1;outlineConnect=0;" vertex="1" parent="1">
          <mxGeometry x="217" y="535" width="30" height="60" as="geometry" />
        </mxCell>
        <mxCell id="1vUbkSMEh-zg-u3bl6Ez-13" value="" style="endArrow=classic;html=1;rounded=0;entryX=0.5;entryY=0;entryDx=0;entryDy=0;" edge="1" parent="1" source="1vUbkSMEh-zg-u3bl6Ez-7" target="1vUbkSMEh-zg-u3bl6Ez-16">
          <mxGeometry width="50" height="50" relative="1" as="geometry">
            <mxPoint x="957" y="510" as="sourcePoint" />
            <mxPoint x="1007" y="460" as="targetPoint" />
          </mxGeometry>
        </mxCell>
        <mxCell id="1vUbkSMEh-zg-u3bl6Ez-14" value="" style="edgeStyle=orthogonalEdgeStyle;rounded=0;orthogonalLoop=1;jettySize=auto;html=1;entryX=1;entryY=0;entryDx=0;entryDy=0;exitX=0;exitY=0.3333333333333333;exitDx=0;exitDy=0;exitPerimeter=0;" edge="1" parent="1" source="1vUbkSMEh-zg-u3bl6Ez-15" target="1vUbkSMEh-zg-u3bl6Ez-23">
          <mxGeometry relative="1" as="geometry" />
        </mxCell>
        <mxCell id="1vUbkSMEh-zg-u3bl6Ez-15" value="Auxiliar" style="shape=umlActor;verticalLabelPosition=bottom;verticalAlign=top;html=1;outlineConnect=0;" vertex="1" parent="1">
          <mxGeometry x="657" y="585" width="30" height="60" as="geometry" />
        </mxCell>
        <mxCell id="1vUbkSMEh-zg-u3bl6Ez-16" value="&lt;div&gt;Asignacion&amp;nbsp;&lt;/div&gt;&lt;div&gt;Rutas&lt;/div&gt;" style="ellipse;whiteSpace=wrap;html=1;rounded=0;shadow=1;comic=0;labelBackgroundColor=none;strokeWidth=1;fontFamily=Verdana;fontSize=12;align=center;" vertex="1" parent="1">
          <mxGeometry x="807" y="575" width="120" height="60" as="geometry" />
        </mxCell>
        <mxCell id="1vUbkSMEh-zg-u3bl6Ez-17" value="" style="endArrow=classic;html=1;rounded=0;exitX=1;exitY=0.3333333333333333;exitDx=0;exitDy=0;exitPerimeter=0;" edge="1" parent="1" source="1vUbkSMEh-zg-u3bl6Ez-12" target="1vUbkSMEh-zg-u3bl6Ez-10">
          <mxGeometry width="50" height="50" relative="1" as="geometry">
            <mxPoint x="-232.75" y="604.4200000000001" as="sourcePoint" />
            <mxPoint x="426.9979726494428" y="554.997232850315" as="targetPoint" />
          </mxGeometry>
        </mxCell>
        <mxCell id="1vUbkSMEh-zg-u3bl6Ez-18" value="" style="endArrow=classic;html=1;rounded=0;exitX=1;exitY=0.3333333333333333;exitDx=0;exitDy=0;exitPerimeter=0;" edge="1" parent="1" source="1vUbkSMEh-zg-u3bl6Ez-15" target="1vUbkSMEh-zg-u3bl6Ez-16">
          <mxGeometry width="50" height="50" relative="1" as="geometry">
            <mxPoint x="567" y="610" as="sourcePoint" />
            <mxPoint x="829" y="566" as="targetPoint" />
          </mxGeometry>
        </mxCell>
        <mxCell id="1vUbkSMEh-zg-u3bl6Ez-19" value="&lt;div&gt;Hacer entrega&lt;/div&gt;&lt;div&gt;de &lt;br&gt;&lt;/div&gt;&lt;div&gt;Pedidos.&lt;br&gt;&lt;/div&gt;" style="ellipse;whiteSpace=wrap;html=1;rounded=0;shadow=1;comic=0;labelBackgroundColor=none;strokeWidth=1;fontFamily=Verdana;fontSize=12;align=center;" vertex="1" parent="1">
          <mxGeometry x="777" y="710" width="130" height="70" as="geometry" />
        </mxCell>
        <mxCell id="1vUbkSMEh-zg-u3bl6Ez-20" value="Conductor" style="shape=umlActor;verticalLabelPosition=bottom;verticalAlign=top;html=1;outlineConnect=0;" vertex="1" parent="1">
          <mxGeometry x="1007" y="660" width="30" height="60" as="geometry" />
        </mxCell>
        <mxCell id="1vUbkSMEh-zg-u3bl6Ez-21" value="" style="endArrow=classic;html=1;rounded=0;entryX=1;entryY=0.5;entryDx=0;entryDy=0;exitX=0;exitY=1;exitDx=0;exitDy=0;exitPerimeter=0;" edge="1" parent="1" source="1vUbkSMEh-zg-u3bl6Ez-20" target="1vUbkSMEh-zg-u3bl6Ez-19">
          <mxGeometry width="50" height="50" relative="1" as="geometry">
            <mxPoint x="1027" y="880" as="sourcePoint" />
            <mxPoint x="832" y="730" as="targetPoint" />
          </mxGeometry>
        </mxCell>
        <mxCell id="1vUbkSMEh-zg-u3bl6Ez-22" value="" style="endArrow=classic;html=1;rounded=0;exitX=1;exitY=1;exitDx=0;exitDy=0;entryX=0;entryY=0.3333333333333333;entryDx=0;entryDy=0;entryPerimeter=0;" edge="1" parent="1" source="1vUbkSMEh-zg-u3bl6Ez-16" target="1vUbkSMEh-zg-u3bl6Ez-20">
          <mxGeometry width="50" height="50" relative="1" as="geometry">
            <mxPoint x="1077" y="880" as="sourcePoint" />
            <mxPoint x="1007" y="770" as="targetPoint" />
          </mxGeometry>
        </mxCell>
        <mxCell id="1vUbkSMEh-zg-u3bl6Ez-23" value="&lt;div&gt;Informes e&lt;/div&gt;&lt;div&gt;Inventario &lt;br&gt;&lt;/div&gt;" style="ellipse;whiteSpace=wrap;html=1;rounded=0;shadow=1;comic=0;labelBackgroundColor=none;strokeWidth=1;fontFamily=Verdana;fontSize=12;align=center;" vertex="1" parent="1">
          <mxGeometry x="377" y="760" width="130" height="70" as="geometry" />
        </mxCell>
        <mxCell id="1vUbkSMEh-zg-u3bl6Ez-24" style="edgeStyle=orthogonalEdgeStyle;rounded=0;orthogonalLoop=1;jettySize=auto;html=1;exitX=0.021;exitY=0.387;exitDx=0;exitDy=0;exitPerimeter=0;entryX=1;entryY=0.5;entryDx=0;entryDy=0;" edge="1" parent="1" source="1vUbkSMEh-zg-u3bl6Ez-19" target="1vUbkSMEh-zg-u3bl6Ez-23">
          <mxGeometry relative="1" as="geometry" />
        </mxCell>
        <mxCell id="1vUbkSMEh-zg-u3bl6Ez-25" style="edgeStyle=orthogonalEdgeStyle;rounded=0;orthogonalLoop=1;jettySize=auto;html=1;entryX=0;entryY=0.5;entryDx=0;entryDy=0;" edge="1" parent="1" source="1vUbkSMEh-zg-u3bl6Ez-26" target="1vUbkSMEh-zg-u3bl6Ez-23">
          <mxGeometry relative="1" as="geometry" />
        </mxCell>
        <mxCell id="1vUbkSMEh-zg-u3bl6Ez-26" value="Devoluciones" style="ellipse;whiteSpace=wrap;html=1;rounded=0;shadow=1;comic=0;labelBackgroundColor=none;strokeWidth=1;fontFamily=Verdana;fontSize=12;align=center;" vertex="1" parent="1">
          <mxGeometry x="60" y="655" width="130" height="70" as="geometry" />
        </mxCell>
        <mxCell id="1vUbkSMEh-zg-u3bl6Ez-28" value="Admin " style="shape=umlActor;verticalLabelPosition=bottom;verticalAlign=top;html=1;outlineConnect=0;" vertex="1" parent="1">
          <mxGeometry x="427" y="943" width="30" height="60" as="geometry" />
        </mxCell>
        <mxCell id="1vUbkSMEh-zg-u3bl6Ez-29" style="edgeStyle=orthogonalEdgeStyle;rounded=0;orthogonalLoop=1;jettySize=auto;html=1;exitX=0.5;exitY=1;exitDx=0;exitDy=0;entryX=0.5;entryY=0;entryDx=0;entryDy=0;entryPerimeter=0;" edge="1" parent="1" source="1vUbkSMEh-zg-u3bl6Ez-23" target="1vUbkSMEh-zg-u3bl6Ez-28">
          <mxGeometry relative="1" as="geometry" />
        </mxCell>
        <mxCell id="1vUbkSMEh-zg-u3bl6Ez-30" value="&lt;div&gt;CRUD&amp;nbsp;&lt;/div&gt;&lt;div&gt;Envios&lt;/div&gt;" style="ellipse;whiteSpace=wrap;html=1;rounded=0;shadow=1;comic=0;labelBackgroundColor=none;strokeWidth=1;fontFamily=Verdana;fontSize=12;align=center;" vertex="1" parent="1">
          <mxGeometry x="140" y="840" width="90" height="50" as="geometry" />
        </mxCell>
        <mxCell id="1vUbkSMEh-zg-u3bl6Ez-31" value="&lt;div&gt;CRUD usuarios,&lt;/div&gt;&lt;div&gt;permisos y/o&lt;br&gt;&lt;/div&gt;&lt;div&gt;roles&lt;br&gt;&lt;/div&gt;" style="ellipse;whiteSpace=wrap;html=1;rounded=0;shadow=1;comic=0;labelBackgroundColor=none;strokeWidth=1;fontFamily=Verdana;fontSize=12;align=center;" vertex="1" parent="1">
          <mxGeometry x="113.5" y="910" width="143" height="73" as="geometry" />
        </mxCell>
        <mxCell id="1vUbkSMEh-zg-u3bl6Ez-33" value="" style="endArrow=classic;html=1;rounded=0;entryX=1;entryY=0;entryDx=0;entryDy=0;" edge="1" parent="1" source="1vUbkSMEh-zg-u3bl6Ez-7" target="1vUbkSMEh-zg-u3bl6Ez-10">
          <mxGeometry width="50" height="50" relative="1" as="geometry">
            <mxPoint x="535" y="473" as="sourcePoint" />
            <mxPoint x="501" y="400" as="targetPoint" />
          </mxGeometry>
        </mxCell>
        <mxCell id="1vUbkSMEh-zg-u3bl6Ez-34" value="el sistema reporta la unicacion y &lt;br&gt;cuando se hace el " style="text;html=1;align=center;verticalAlign=middle;resizable=0;points=[];autosize=1;strokeColor=none;fillColor=none;" vertex="1" parent="1">
          <mxGeometry x="880" y="786" width="200" height="40" as="geometry" />
        </mxCell>
        <mxCell id="1vUbkSMEh-zg-u3bl6Ez-35" value="" style="endArrow=classic;html=1;rounded=0;" edge="1" parent="1" source="1vUbkSMEh-zg-u3bl6Ez-2" target="1vUbkSMEh-zg-u3bl6Ez-1">
          <mxGeometry width="50" height="50" relative="1" as="geometry">
            <mxPoint x="776" y="238" as="sourcePoint" />
            <mxPoint x="670" y="263" as="targetPoint" />
          </mxGeometry>
        </mxCell>
        <mxCell id="IOoxeKuL4cRhArYhOOwJ-2" value="" style="endArrow=classic;html=1;rounded=0;exitX=0;exitY=0.3333333333333333;exitDx=0;exitDy=0;exitPerimeter=0;" edge="1" parent="1" source="1vUbkSMEh-zg-u3bl6Ez-28" target="1vUbkSMEh-zg-u3bl6Ez-30">
          <mxGeometry width="50" height="50" relative="1" as="geometry">
            <mxPoint x="390" y="940" as="sourcePoint" />
            <mxPoint x="570" y="950" as="targetPoint" />
          </mxGeometry>
        </mxCell>
        <mxCell id="IOoxeKuL4cRhArYhOOwJ-3" value="" style="endArrow=classic;html=1;rounded=0;exitX=0;exitY=0.3333333333333333;exitDx=0;exitDy=0;exitPerimeter=0;" edge="1" parent="1" source="1vUbkSMEh-zg-u3bl6Ez-28" target="1vUbkSMEh-zg-u3bl6Ez-31">
          <mxGeometry width="50" height="50" relative="1" as="geometry">
            <mxPoint x="380" y="1000" as="sourcePoint" />
            <mxPoint x="205" y="894" as="targetPoint" />
          </mxGeometry>
        </mxCell>
        <mxCell id="IOoxeKuL4cRhArYhOOwJ-4" value="&lt;div&gt;CRUD&amp;nbsp;&lt;/div&gt;&lt;div&gt;Rutas&lt;br&gt;&lt;/div&gt;" style="ellipse;whiteSpace=wrap;html=1;rounded=0;shadow=1;comic=0;labelBackgroundColor=none;strokeWidth=1;fontFamily=Verdana;fontSize=12;align=center;" vertex="1" parent="1">
          <mxGeometry x="140" y="1003" width="90" height="50" as="geometry" />
        </mxCell>
        <mxCell id="IOoxeKuL4cRhArYhOOwJ-5" value="" style="endArrow=classic;html=1;rounded=0;exitX=0;exitY=1;exitDx=0;exitDy=0;exitPerimeter=0;" edge="1" parent="1" source="1vUbkSMEh-zg-u3bl6Ez-28" target="IOoxeKuL4cRhArYhOOwJ-4">
          <mxGeometry width="50" height="50" relative="1" as="geometry">
            <mxPoint x="437" y="973" as="sourcePoint" />
            <mxPoint x="247" y="976" as="targetPoint" />
          </mxGeometry>
        </mxCell>
        <mxCell id="IOoxeKuL4cRhArYhOOwJ-6" value="&lt;div&gt;CRUD&amp;nbsp;&lt;/div&gt;&lt;div&gt;Reportes&lt;br&gt;&lt;/div&gt;" style="ellipse;whiteSpace=wrap;html=1;rounded=0;shadow=1;comic=0;labelBackgroundColor=none;strokeWidth=1;fontFamily=Verdana;fontSize=12;align=center;" vertex="1" parent="1">
          <mxGeometry x="164" y="1070" width="83" height="50" as="geometry" />
        </mxCell>
        <mxCell id="IOoxeKuL4cRhArYhOOwJ-7" value="" style="endArrow=classic;html=1;rounded=0;exitX=0;exitY=1;exitDx=0;exitDy=0;exitPerimeter=0;" edge="1" parent="1" source="1vUbkSMEh-zg-u3bl6Ez-28" target="IOoxeKuL4cRhArYhOOwJ-6">
          <mxGeometry width="50" height="50" relative="1" as="geometry">
            <mxPoint x="427" y="1223" as="sourcePoint" />
            <mxPoint x="570" y="1210" as="targetPoint" />
          </mxGeometry>
        </mxCell>
        <mxCell id="IOoxeKuL4cRhArYhOOwJ-9" style="edgeStyle=orthogonalEdgeStyle;rounded=0;orthogonalLoop=1;jettySize=auto;html=1;exitX=0.5;exitY=1;exitDx=0;exitDy=0;" edge="1" parent="1" source="1vUbkSMEh-zg-u3bl6Ez-31" target="1vUbkSMEh-zg-u3bl6Ez-31">
          <mxGeometry relative="1" as="geometry" />
        </mxCell>
      </root>
    </mxGraphModel>
  </diagram>
  <diagram id="8BEyz2aeNspvkXsTCQm_" name="Página-2">
    <mxGraphModel grid="1" page="1" gridSize="10" guides="1" tooltips="1" connect="1" arrows="1" fold="1" pageScale="1" pageWidth="827" pageHeight="1169" math="0" shadow="0">
      <root>
        <mxCell id="0" />
        <mxCell id="1" parent="0" />
        <mxCell id="wSmOKI-jgG0Ggf6m2X7_-57" style="edgeStyle=orthogonalEdgeStyle;rounded=0;orthogonalLoop=1;jettySize=auto;html=1;entryX=0;entryY=0.5;entryDx=0;entryDy=0;" edge="1" parent="1" source="wSmOKI-jgG0Ggf6m2X7_-42" target="wSmOKI-jgG0Ggf6m2X7_-56">
          <mxGeometry relative="1" as="geometry" />
        </mxCell>
        <mxCell id="wSmOKI-jgG0Ggf6m2X7_-42" value="DS&lt;div&gt;DATA STRUCTURES&lt;/div&gt;" style="ellipse;whiteSpace=wrap;html=1;" vertex="1" parent="1">
          <mxGeometry x="180" y="310" width="140" height="80" as="geometry" />
        </mxCell>
        <mxCell id="wSmOKI-jgG0Ggf6m2X7_-50" value="NODOS&amp;nbsp;&lt;div&gt;or&lt;/div&gt;&lt;div&gt;GRAFOS&lt;/div&gt;" style="ellipse;whiteSpace=wrap;html=1;" vertex="1" parent="1">
          <mxGeometry x="60" y="720" width="120" height="80" as="geometry" />
        </mxCell>
        <mxCell id="wSmOKI-jgG0Ggf6m2X7_-51" value="Arboles" style="ellipse;whiteSpace=wrap;html=1;" vertex="1" parent="1">
          <mxGeometry x="230" y="730" width="120" height="80" as="geometry" />
        </mxCell>
        <mxCell id="wSmOKI-jgG0Ggf6m2X7_-52" value="sets" style="ellipse;whiteSpace=wrap;html=1;" vertex="1" parent="1">
          <mxGeometry x="410" y="700" width="120" height="80" as="geometry" />
        </mxCell>
        <mxCell id="wSmOKI-jgG0Ggf6m2X7_-53" value="stacks&amp;nbsp;" style="ellipse;whiteSpace=wrap;html=1;" vertex="1" parent="1">
          <mxGeometry x="530" y="585" width="120" height="80" as="geometry" />
        </mxCell>
        <mxCell id="wSmOKI-jgG0Ggf6m2X7_-54" value="colas" style="ellipse;whiteSpace=wrap;html=1;" vertex="1" parent="1">
          <mxGeometry x="530" y="290" width="120" height="80" as="geometry" />
        </mxCell>
        <mxCell id="wSmOKI-jgG0Ggf6m2X7_-55" value="Mapas" style="ellipse;whiteSpace=wrap;html=1;" vertex="1" parent="1">
          <mxGeometry x="560" y="450" width="120" height="80" as="geometry" />
        </mxCell>
        <mxCell id="wSmOKI-jgG0Ggf6m2X7_-60" style="edgeStyle=orthogonalEdgeStyle;rounded=0;orthogonalLoop=1;jettySize=auto;html=1;" edge="1" parent="1" source="wSmOKI-jgG0Ggf6m2X7_-56" target="wSmOKI-jgG0Ggf6m2X7_-59">
          <mxGeometry relative="1" as="geometry" />
        </mxCell>
        <mxCell id="wSmOKI-jgG0Ggf6m2X7_-56" value="Arryas&lt;div&gt;&lt;br&gt;&lt;/div&gt;" style="ellipse;whiteSpace=wrap;html=1;" vertex="1" parent="1">
          <mxGeometry x="500" y="150" width="120" height="70" as="geometry" />
        </mxCell>
        <mxCell id="wSmOKI-jgG0Ggf6m2X7_-58" value="0. DATO 1&lt;div&gt;1. DATO 2&lt;/div&gt;&lt;div&gt;2, DATO 3&lt;/div&gt;" style="whiteSpace=wrap;html=1;aspect=fixed;" vertex="1" parent="1">
          <mxGeometry x="1241" y="20" width="90" height="90" as="geometry" />
        </mxCell>
        <mxCell id="wSmOKI-jgG0Ggf6m2X7_-59" value="List&lt;div&gt;Array&lt;/div&gt;&lt;div&gt;ArrayList&lt;/div&gt;&lt;div&gt;LinkedList&lt;/div&gt;&lt;div&gt;&lt;div&gt;&lt;br&gt;&lt;/div&gt;&lt;/div&gt;" style="ellipse;whiteSpace=wrap;html=1;" vertex="1" parent="1">
          <mxGeometry x="750" y="140" width="130" height="90" as="geometry" />
        </mxCell>
        <mxCell id="wSmOKI-jgG0Ggf6m2X7_-63" style="edgeStyle=orthogonalEdgeStyle;rounded=0;orthogonalLoop=1;jettySize=auto;html=1;exitX=1;exitY=0.5;exitDx=0;exitDy=0;entryX=0;entryY=0.5;entryDx=0;entryDy=0;" edge="1" parent="1" source="wSmOKI-jgG0Ggf6m2X7_-61" target="wSmOKI-jgG0Ggf6m2X7_-62">
          <mxGeometry relative="1" as="geometry" />
        </mxCell>
        <mxCell id="wSmOKI-jgG0Ggf6m2X7_-61" value="1" style="whiteSpace=wrap;html=1;aspect=fixed;" vertex="1" parent="1">
          <mxGeometry x="1610" y="240" width="80" height="80" as="geometry" />
        </mxCell>
        <mxCell id="wSmOKI-jgG0Ggf6m2X7_-67" style="edgeStyle=orthogonalEdgeStyle;rounded=0;orthogonalLoop=1;jettySize=auto;html=1;exitX=1;exitY=0.5;exitDx=0;exitDy=0;entryX=0;entryY=0.5;entryDx=0;entryDy=0;" edge="1" parent="1" source="wSmOKI-jgG0Ggf6m2X7_-62" target="wSmOKI-jgG0Ggf6m2X7_-64">
          <mxGeometry relative="1" as="geometry">
            <mxPoint x="1900" y="280" as="targetPoint" />
          </mxGeometry>
        </mxCell>
        <mxCell id="wSmOKI-jgG0Ggf6m2X7_-62" value="1" style="whiteSpace=wrap;html=1;aspect=fixed;" vertex="1" parent="1">
          <mxGeometry x="1750" y="240" width="80" height="80" as="geometry" />
        </mxCell>
        <mxCell id="wSmOKI-jgG0Ggf6m2X7_-70" style="edgeStyle=orthogonalEdgeStyle;rounded=0;orthogonalLoop=1;jettySize=auto;html=1;entryX=0;entryY=0.5;entryDx=0;entryDy=0;" edge="1" parent="1" source="wSmOKI-jgG0Ggf6m2X7_-64" target="wSmOKI-jgG0Ggf6m2X7_-69">
          <mxGeometry relative="1" as="geometry" />
        </mxCell>
        <mxCell id="wSmOKI-jgG0Ggf6m2X7_-64" value="9" style="whiteSpace=wrap;html=1;aspect=fixed;" vertex="1" parent="1">
          <mxGeometry x="1920.5" y="250" width="80" height="80" as="geometry" />
        </mxCell>
        <mxCell id="wSmOKI-jgG0Ggf6m2X7_-65" value="2" style="whiteSpace=wrap;html=1;aspect=fixed;" vertex="1" parent="1">
          <mxGeometry x="2380" y="250" width="80" height="80" as="geometry" />
        </mxCell>
        <mxCell id="wSmOKI-jgG0Ggf6m2X7_-68" style="edgeStyle=orthogonalEdgeStyle;rounded=0;orthogonalLoop=1;jettySize=auto;html=1;entryX=0;entryY=0.5;entryDx=0;entryDy=0;" edge="1" parent="1" source="wSmOKI-jgG0Ggf6m2X7_-66" target="wSmOKI-jgG0Ggf6m2X7_-65">
          <mxGeometry relative="1" as="geometry" />
        </mxCell>
        <mxCell id="wSmOKI-jgG0Ggf6m2X7_-66" value="2" style="whiteSpace=wrap;html=1;aspect=fixed;" vertex="1" parent="1">
          <mxGeometry x="2220" y="250" width="80" height="80" as="geometry" />
        </mxCell>
        <mxCell id="wSmOKI-jgG0Ggf6m2X7_-71" style="edgeStyle=orthogonalEdgeStyle;rounded=0;orthogonalLoop=1;jettySize=auto;html=1;" edge="1" parent="1" source="wSmOKI-jgG0Ggf6m2X7_-69" target="wSmOKI-jgG0Ggf6m2X7_-66">
          <mxGeometry relative="1" as="geometry" />
        </mxCell>
        <mxCell id="wSmOKI-jgG0Ggf6m2X7_-69" value="9" style="whiteSpace=wrap;html=1;aspect=fixed;" vertex="1" parent="1">
          <mxGeometry x="2060" y="250" width="80" height="80" as="geometry" />
        </mxCell>
      </root>
    </mxGraphModel>
  </diagram>
</mxfile>
